<svg xmlns="http://www.w3.org/2000/svg" width="860" height="776" viewBox="0 0 860 776" role="img" aria-label="Tech stack">
<defs><style>text{font-family:'Segoe UI',Ubuntu,Helvetica,Arial,sans-serif;}.band{font-weight:700;font-size:15px;}.pt{font-weight:600;font-size:13px;fill:#c9d1d9;}.row{animation:rise .55s ease both;}.r0{animation-delay:0.02s}.r1{animation-delay:0.12s}.r2{animation-delay:0.22s}.r3{animation-delay:0.32s}.r4{animation-delay:0.42s}.r5{animation-delay:0.52s}.r6{animation-delay:0.62s}@keyframes rise{from{opacity:.2;transform:translateY(6px)}to{opacity:1;transform:none}}</style></defs>
<rect x="0" y="0" width="860" height="776" rx="16" fill="#0d1117"/>
<g class="row r0">
  <text class="band" fill="#7aa2f7" x="28" y="40">☁️  Cloud &amp; Platform Engineering</text>
  <rect x="28" y="54" width="136" height="32" rx="8" fill="#4285f41f" stroke="#4285f4" stroke-width="1.3"/>
  <g transform="translate(42,62.0) scale(0.6667)"><path d="M12.19 2.38a9.344 9.344 0 0 0-9.234 6.893c.053-.02-.055.013 0 0-3.875 2.551-3.922 8.11-.247 10.941l.006-.007-.007.03a6.717 6.717 0 0 0 4.077 1.356h5.173l.03.03h5.192c6.687.053 9.376-8.605 3.835-12.35a9.365 9.365 0 0 0-2.821-4.552l-.043.043.006-.05A9.344 9.344 0 0 0 12.19 2.38zm-.358 4.146c1.244-.04 2.518.368 3.486 1.15a5.186 5.186 0 0 1 1.862 4.078v.518c3.53-.07 3.53 5.262 0 5.193h-5.193l-.008.009v-.04H6.785a2.59 2.59 0 0 1-1.067-.23h.001a2.597 2.597 0 1 1 3.437-3.437l3.013-3.012A6.747 6.747 0 0 0 8.11 8.24c.018-.01.04-.026.054-.023a5.186 5.186 0 0 1 3.67-1.69z" fill="#4285f4"/></g>
  <text class="pt" x="65" y="75">Google Cloud</text>
  <rect x="176" y="54" width="123" height="32" rx="8" fill="#3a72e61f" stroke="#3a72e6" stroke-width="1.3"/>
  <g transform="translate(190,62.0) scale(0.6667)"><path d="M10.204 14.35l.007.01-.999 2.413a5.171 5.171 0 0 1-2.075-2.597l2.578-.437.004.005a.44.44 0 0 1 .484.606zm-.833-2.129a.44.44 0 0 0 .173-.756l.002-.011L7.585 9.7a5.143 5.143 0 0 0-.73 3.255l2.514-.725.002-.009zm1.145-1.98a.44.44 0 0 0 .699-.337l.01-.005.15-2.62a5.144 5.144 0 0 0-3.01 1.442l2.147 1.523.004-.002zm.76 2.75l.723.349.722-.347.18-.78-.5-.623h-.804l-.5.623.179.779zm1.5-3.095a.44.44 0 0 0 .7.336l.008.003 2.134-1.513a5.188 5.188 0 0 0-2.992-1.442l.148 2.615.002.001zm10.876 5.97l-5.773 7.181a1.6 1.6 0 0 1-1.248.594l-9.261.003a1.6 1.6 0 0 1-1.247-.596l-5.776-7.18a1.583 1.583 0 0 1-.307-1.34L2.1 5.573c.108-.47.425-.864.863-1.073L11.305.513a1.606 1.606 0 0 1 1.385 0l8.345 3.985c.438.209.755.604.863 1.073l2.062 8.955c.108.47-.005.963-.308 1.34zm-3.289-2.057c-.042-.01-.103-.026-.145-.034-.174-.033-.315-.025-.479-.038-.35-.037-.638-.067-.895-.148-.105-.04-.18-.165-.216-.216l-.201-.059a6.45 6.45 0 0 0-.105-2.332 6.465 6.465 0 0 0-.936-2.163c.052-.047.15-.133.177-.159.008-.09.001-.183.094-.282.197-.185.444-.338.743-.522.142-.084.273-.137.415-.242.032-.024.076-.062.11-.089.24-.191.295-.52.123-.736-.172-.216-.506-.236-.745-.045-.034.027-.08.062-.111.088-.134.116-.217.23-.33.35-.246.25-.45.458-.673.609-.097.056-.239.037-.303.033l-.19.135a6.545 6.545 0 0 0-4.146-2.003l-.012-.223c-.065-.062-.143-.115-.163-.25-.022-.268.015-.557.057-.905.023-.163.061-.298.068-.475.001-.04-.001-.099-.001-.142 0-.306-.224-.555-.5-.555-.275 0-.499.249-.499.555l.001.014c0 .041-.002.092 0 .128.006.177.044.312.067.475.042.348.078.637.056.906a.545.545 0 0 1-.162.258l-.012.211a6.424 6.424 0 0 0-4.166 2.003 8.373 8.373 0 0 1-.18-.128c-.09.012-.18.04-.297-.029-.223-.15-.427-.358-.673-.608-.113-.12-.195-.234-.329-.349-.03-.026-.077-.062-.111-.088a.594.594 0 0 0-.348-.132.481.481 0 0 0-.398.176c-.172.216-.117.546.123.737l.007.005.104.083c.142.105.272.159.414.242.299.185.546.338.743.522.076.082.09.226.1.288l.16.143a6.462 6.462 0 0 0-1.02 4.506l-.208.06c-.055.072-.133.184-.215.217-.257.081-.546.11-.895.147-.164.014-.305.006-.48.039-.037.007-.09.02-.133.03l-.004.002-.007.002c-.295.071-.484.342-.423.608.061.267.349.429.645.365l.007-.001.01-.003.129-.029c.17-.046.294-.113.448-.172.33-.118.604-.217.87-.256.112-.009.23.069.288.101l.217-.037a6.5 6.5 0 0 0 2.88 3.596l-.09.218c.033.084.069.199.044.282-.097.252-.263.517-.452.813-.091.136-.185.242-.268.399-.02.037-.045.095-.064.134-.128.275-.034.591.213.71.248.12.556-.007.69-.282v-.002c.02-.039.046-.09.062-.127.07-.162.094-.301.144-.458.132-.332.205-.68.387-.897.05-.06.13-.082.215-.105l.113-.205a6.453 6.453 0 0 0 4.609.012l.106.192c.086.028.18.042.256.155.136.232.229.507.342.84.05.156.074.295.145.457.016.037.043.09.062.129.133.276.442.402.69.282.247-.118.341-.435.213-.71-.02-.039-.045-.096-.065-.134-.083-.156-.177-.261-.268-.398-.19-.296-.346-.541-.443-.793-.04-.13.007-.21.038-.294-.018-.022-.059-.144-.083-.202a6.499 6.499 0 0 0 2.88-3.622c.064.01.176.03.213.038.075-.05.144-.114.28-.104.266.039.54.138.87.256.154.06.277.128.448.173.036.01.088.019.13.028l.009.003.007.001c.297.064.584-.098.645-.365.06-.266-.128-.537-.423-.608zM16.4 9.701l-1.95 1.746v.005a.44.44 0 0 0 .173.757l.003.01 2.526.728a5.199 5.199 0 0 0-.108-1.674A5.208 5.208 0 0 0 16.4 9.7zm-4.013 5.325a.437.437 0 0 0-.404-.232.44.44 0 0 0-.372.233h-.002l-1.268 2.292a5.164 5.164 0 0 0 3.326.003l-1.27-2.296h-.01zm1.888-1.293a.44.44 0 0 0-.27.036.44.44 0 0 0-.214.572l-.003.004 1.01 2.438a5.15 5.15 0 0 0 2.081-2.615l-2.6-.44-.004.005z" fill="#3a72e6"/></g>
  <text class="pt" x="213" y="75">Kubernetes</text>
  <rect x="311" y="54" width="95" height="32" rx="8" fill="#2496ed1f" stroke="#2496ed" stroke-width="1.3"/>
  <g transform="translate(325,62.0) scale(0.6667)"><path d="M13.983 11.078h2.119a.186.186 0 00.186-.185V9.006a.186.186 0 00-.186-.186h-2.119a.185.185 0 00-.185.185v1.888c0 .102.083.185.185.185m-2.954-5.43h2.118a.186.186 0 00.186-.186V3.574a.186.186 0 00-.186-.185h-2.118a.185.185 0 00-.185.185v1.888c0 .102.082.185.185.185m0 2.716h2.118a.187.187 0 00.186-.186V6.29a.186.186 0 00-.186-.185h-2.118a.185.185 0 00-.185.185v1.887c0 .102.082.185.185.186m-2.93 0h2.12a.186.186 0 00.184-.186V6.29a.185.185 0 00-.185-.185H8.1a.185.185 0 00-.185.185v1.887c0 .102.083.185.185.186m-2.964 0h2.119a.186.186 0 00.185-.186V6.29a.185.185 0 00-.185-.185H5.136a.186.186 0 00-.186.185v1.887c0 .102.084.185.186.186m5.893 2.715h2.118a.186.186 0 00.186-.185V9.006a.186.186 0 00-.186-.186h-2.118a.185.185 0 00-.185.185v1.888c0 .102.082.185.185.185m-2.93 0h2.12a.185.185 0 00.184-.185V9.006a.185.185 0 00-.184-.186h-2.12a.185.185 0 00-.184.185v1.888c0 .102.083.185.185.185m-2.964 0h2.119a.185.185 0 00.185-.185V9.006a.185.185 0 00-.184-.186h-2.12a.186.186 0 00-.186.186v1.887c0 .102.084.185.186.185m-2.92 0h2.12a.185.185 0 00.184-.185V9.006a.185.185 0 00-.184-.186h-2.12a.185.185 0 00-.184.185v1.888c0 .102.082.185.185.185M23.763 9.89c-.065-.051-.672-.51-1.954-.51-.338.001-.676.03-1.01.087-.248-1.7-1.653-2.53-1.716-2.566l-.344-.199-.226.327c-.284.438-.49.922-.612 1.43-.23.97-.09 1.882.403 2.661-.595.332-1.55.413-1.744.42H.751a.751.751 0 00-.75.748 11.376 11.376 0 00.692 4.062c.545 1.428 1.355 2.48 2.41 3.124 1.18.723 3.1 1.137 5.275 1.137.983.003 1.963-.086 2.93-.266a12.248 12.248 0 003.823-1.389c.98-.567 1.86-1.288 2.61-2.136 1.252-1.418 1.998-2.997 2.553-4.4h.221c1.372 0 2.215-.549 2.68-1.009.309-.293.55-.65.707-1.046l.098-.288Z" fill="#2496ed"/></g>
  <text class="pt" x="348" y="75">Docker</text>
  <rect x="418" y="54" width="116" height="32" rx="8" fill="#8753bb1f" stroke="#8753bb" stroke-width="1.3"/>
  <g transform="translate(432,62.0) scale(0.6667)"><path d="M1.44 0v7.575l6.561 3.79V3.787zm21.12 4.227l-6.561 3.791v7.574l6.56-3.787zM8.72 4.23v7.575l6.561 3.787V8.018zm0 8.405v7.575L15.28 24v-7.578z" fill="#8753bb"/></g>
  <text class="pt" x="455" y="75">Terraform</text>
  <rect x="546" y="54" width="81" height="32" rx="8" fill="#9195c91f" stroke="#9195c9" stroke-width="1.3"/>
  <g transform="translate(560,62.0) scale(0.6667)"><path d="M12.337 0c-.475 0-.861 1.016-.861 2.269 0 .527.069 1.011.183 1.396a8.514 8.514 0 0 0-3.961 1.22 5.229 5.229 0 0 0-.595-1.093c-.606-.866-1.34-1.436-1.79-1.43a.381.381 0 0 0-.217.066c-.39.273-.123 1.326.596 2.353.267.381.559.705.84.948a8.683 8.683 0 0 0-1.528 1.716h1.734a7.179 7.179 0 0 1 5.381-2.421 7.18 7.18 0 0 1 5.382 2.42h1.733a8.687 8.687 0 0 0-1.32-1.53c.35-.249.735-.643 1.078-1.133.719-1.027.986-2.08.596-2.353a.382.382 0 0 0-.217-.065c-.45-.007-1.184.563-1.79 1.43a4.897 4.897 0 0 0-.676 1.325 8.52 8.52 0 0 0-3.899-1.42c.12-.39.193-.887.193-1.429 0-1.253-.386-2.269-.862-2.269zM1.624 9.443v5.162h1.358v-1.968h1.64v1.968h1.357V9.443H4.62v1.838H2.98V9.443zm5.912 0v5.162h3.21v-1.108H8.893v-.95h1.64v-1.142h-1.64v-.84h1.853V9.443zm4.698 0v5.162h3.218v-1.362h-1.86v-3.8zm4.706 0v5.162h1.364v-2.643l1.357 1.225 1.35-1.232v2.65h1.365V9.443h-.614l-2.1 1.914-2.109-1.914zm-11.82 7.28a8.688 8.688 0 0 0 1.412 1.548 5.206 5.206 0 0 0-.841.948c-.719 1.027-.985 2.08-.596 2.353.39.273 1.289-.338 2.007-1.364a5.23 5.23 0 0 0 .595-1.092 8.514 8.514 0 0 0 3.961 1.219 5.01 5.01 0 0 0-.183 1.396c0 1.253.386 2.269.861 2.269.476 0 .862-1.016.862-2.269 0-.542-.072-1.04-.193-1.43a8.52 8.52 0 0 0 3.9-1.42c.121.4.352.865.675 1.327.719 1.026 1.617 1.637 2.007 1.364.39-.273.123-1.326-.596-2.353-.343-.49-.727-.885-1.077-1.135a8.69 8.69 0 0 0 1.202-1.36h-1.771a7.174 7.174 0 0 1-5.227 2.252 7.174 7.174 0 0 1-5.226-2.252z" fill="#9195c9"/></g>
  <text class="pt" x="583" y="75">Helm</text>
</g>
<g class="row r1">
  <text class="band" fill="#7dcfff" x="28" y="148">🔄  GitOps &amp; Delivery</text>
  <rect x="28" y="162" width="152" height="32" rx="8" fill="#2088ff1f" stroke="#2088ff" stroke-width="1.3"/>
  <g transform="translate(42,170.0) scale(0.6667)"><path d="M10.984 13.836a.5.5 0 0 1-.353-.146l-.745-.743a.5.5 0 1 1 .706-.708l.392.391 1.181-1.18a.5.5 0 0 1 .708.707l-1.535 1.533a.504.504 0 0 1-.354.146zm9.353-.147l1.534-1.532a.5.5 0 0 0-.707-.707l-1.181 1.18-.392-.391a.5.5 0 1 0-.706.708l.746.743a.497.497 0 0 0 .706-.001zM4.527 7.452l2.557-1.585A1 1 0 0 0 7.09 4.17L4.533 2.56A1 1 0 0 0 3 3.406v3.196a1.001 1.001 0 0 0 1.527.85zm2.03-2.436L4 6.602V3.406l2.557 1.61zM24 12.5c0 1.93-1.57 3.5-3.5 3.5a3.503 3.503 0 0 1-3.46-3h-2.08a3.503 3.503 0 0 1-3.46 3 3.502 3.502 0 0 1-3.46-3h-.558c-.972 0-1.85-.399-2.482-1.042V17c0 1.654 1.346 3 3 3h.04c.244-1.693 1.7-3 3.46-3 1.93 0 3.5 1.57 3.5 3.5S13.43 24 11.5 24a3.502 3.502 0 0 1-3.46-3H8c-2.206 0-4-1.794-4-4V9.899A5.008 5.008 0 0 1 0 5c0-2.757 2.243-5 5-5s5 2.243 5 5a5.005 5.005 0 0 1-4.952 4.998A2.482 2.482 0 0 0 7.482 12h.558c.244-1.693 1.7-3 3.46-3a3.502 3.502 0 0 1 3.46 3h2.08a3.503 3.503 0 0 1 3.46-3c1.93 0 3.5 1.57 3.5 3.5zm-15 8c0 1.378 1.122 2.5 2.5 2.5s2.5-1.122 2.5-2.5-1.122-2.5-2.5-2.5S9 19.122 9 20.5zM5 9c2.206 0 4-1.794 4-4S7.206 1 5 1 1 2.794 1 5s1.794 4 4 4zm9 3.5c0-1.378-1.122-2.5-2.5-2.5S9 11.122 9 12.5s1.122 2.5 2.5 2.5 2.5-1.122 2.5-2.5zm9 0c0-1.378-1.122-2.5-2.5-2.5S18 11.122 18 12.5s1.122 2.5 2.5 2.5 2.5-1.122 2.5-2.5zm-13 8a.5.5 0 1 0 1 0 .5.5 0 0 0-1 0zm2 0a.5.5 0 1 0 1 0 .5.5 0 0 0-1 0zm12 0c0 1.93-1.57 3.5-3.5 3.5a3.503 3.503 0 0 1-3.46-3.002c-.007.001-.013.005-.021.005l-.506.017h-.017a.5.5 0 0 1-.016-.999l.506-.017c.018-.002.035.006.052.007A3.503 3.503 0 0 1 20.5 17c1.93 0 3.5 1.57 3.5 3.5zm-1 0c0-1.378-1.122-2.5-2.5-2.5S18 19.122 18 20.5s1.122 2.5 2.5 2.5 2.5-1.122 2.5-2.5z" fill="#2088ff"/></g>
  <text class="pt" x="65" y="183">GitHub Actions</text>
  <rect x="192" y="162" width="123" height="32" rx="8" fill="#4689ab1f" stroke="#4689ab" stroke-width="1.3"/>
  <g transform="translate(206,170.0) scale(0.6667)"><path d="M10.949.3136a1.918 1.918 0 012.102 0l9.3334 6.1182c.541.354.866.957.866 1.604v7.9283c0 .647-.326 1.25-.866 1.604l-9.3334 6.1183a1.918 1.918 0 01-2.102 0l-9.3334-6.1182a1.916 1.916 0 01-.866-1.604V8.0358c0-.647.326-1.25.866-1.604zm1.801 7.1862v.75H6.7498a.75.75 0 00-.75.7501V12h-.5a.25.25 0 00-.25.25v2.5c0 .1381.112.2501.25.2501h.5v1.5c0 .415.336.75.75.75h10.5004a.75.75 0 00.75-.75v-1.5h.5a.25.25 0 00.25-.25v-2.5a.25.25 0 00-.25-.2501h-.5V8.9999a.75.75 0 00-.75-.75H13.5V5.4998a.25.25 0 00-.25-.25H11.5a.25.25 0 00-.25.25v1.75c0 .138.112.25.25.25zm3.2861 5.0892l-1.572 1.572a.303.303 0 01-.428 0l-.947-.947a.303.303 0 010-.428l.322-.322a.303.303 0 01.428 0l.41.411 1.037-1.036a.303.303 0 01.428 0l.322.322a.303.303 0 010 .428zM9.464 14.16v.001a.303.303 0 01-.428 0l-.948-.947a.302.302 0 010-.428l.323-.322a.303.303 0 01.427 0l.412.411 1.036-1.037a.303.303 0 01.427 0l.323.322a.303.303 0 010 .428z" fill="#4689ab"/></g>
  <text class="pt" x="229" y="183">Dependabot</text>
  <rect x="327" y="162" width="98" height="32" rx="8" fill="#5468ff1f" stroke="#5468ff" stroke-width="1.3"/>
  <g transform="translate(341,170.0) scale(0.6667)"><path d="M11.402 23.747c.154.075.306.154.454.238.181.038.37.004.525-.097l.386-.251c-1.242-.831-2.622-1.251-3.998-1.602l2.633 1.712Zm-7.495-5.783a8.088 8.088 0 0 1-.222-.236.696.696 0 0 0 .112 1.075l2.304 1.498c1.019.422 2.085.686 3.134.944 1.636.403 3.2.79 4.554 1.728l.697-.453c-1.541-1.158-3.327-1.602-5.065-2.03-2.039-.503-3.965-.977-5.514-2.526Zm1.414-1.322-.665.432c.023.024.044.049.068.073 1.702 1.702 3.825 2.225 5.877 2.731 1.778.438 3.469.856 4.9 1.982l.682-.444c-1.612-1.357-3.532-1.834-5.395-2.293-2.019-.497-3.926-.969-5.467-2.481Zm7.502 2.084c1.596.412 3.096.904 4.367 2.036l.67-.436c-1.484-1.396-3.266-1.953-5.037-2.403v.803Zm.698-2.337a64.695 64.695 0 0 1-.698-.174v.802l.512.127c2.039.503 3.965.978 5.514 2.526l.007.009.663-.431c-.041-.042-.079-.086-.121-.128-1.702-1.701-3.824-2.225-5.877-2.731Zm-.698-1.928v.816c.624.19 1.255.347 1.879.501 2.039.502 3.965.977 5.513 2.526.077.077.153.157.226.239a.704.704 0 0 0-.238-.911l-3.064-1.992c-.744-.245-1.502-.433-2.251-.618a31.436 31.436 0 0 1-2.065-.561Zm-1.646 3.049c-1.526-.4-2.96-.888-4.185-1.955l-.674.439c1.439 1.326 3.151 1.88 4.859 2.319v-.803Zm0-1.772a8.543 8.543 0 0 1-2.492-1.283l-.686.446c.975.804 2.061 1.293 3.178 1.655v-.818Zm0-1.946a7.59 7.59 0 0 1-.776-.453l-.701.456c.462.337.957.627 1.477.865v-.868Zm3.533.269-1.887-1.226v.581c.614.257 1.244.473 1.887.645Zm5.493-8.863L12.381.112a.705.705 0 0 0-.762 0L3.797 5.198a.698.698 0 0 0 0 1.171l7.38 4.797V7.678a.414.414 0 0 0-.412-.412h-.543a.413.413 0 0 1-.356-.617l1.777-3.079a.412.412 0 0 1 .714 0l1.777 3.079a.413.413 0 0 1-.356.617h-.543a.414.414 0 0 0-.412.412v3.488l7.38-4.797a.7.7 0 0 0 0-1.171Z" fill="#5468ff"/></g>
  <text class="pt" x="364" y="183">FluxCD</text>
  <rect x="437" y="162" width="73" height="32" rx="8" fill="#f050321f" stroke="#f05032" stroke-width="1.3"/>
  <g transform="translate(451,170.0) scale(0.6667)"><path d="M23.546 10.93L13.067.452c-.604-.603-1.582-.603-2.188 0L8.708 2.627l2.76 2.76c.645-.215 1.379-.07 1.889.441.516.515.658 1.258.438 1.9l2.658 2.66c.645-.223 1.387-.078 1.9.435.721.72.721 1.884 0 2.604-.719.719-1.881.719-2.6 0-.539-.541-.674-1.337-.404-1.996L12.86 8.955v6.525c.176.086.342.203.488.348.713.721.713 1.883 0 2.6-.719.721-1.889.721-2.609 0-.719-.719-.719-1.879 0-2.598.182-.18.387-.316.605-.406V8.835c-.217-.091-.424-.222-.6-.401-.545-.545-.676-1.342-.396-2.009L7.636 3.7.45 10.881c-.6.605-.6 1.584 0 2.189l10.48 10.477c.604.604 1.582.604 2.186 0l10.43-10.43c.605-.603.605-1.582 0-2.187" fill="#f05032"/></g>
  <text class="pt" x="474" y="183">Git</text>
</g>
<g class="row r2">
  <text class="band" fill="#f7768e" x="28" y="256">📈  Observability &amp; SRE</text>
  <rect x="28" y="270" width="102" height="32" rx="8" fill="#f468001f" stroke="#f46800" stroke-width="1.3"/>
  <g transform="translate(42,278.0) scale(0.6667)"><path d="M23.02 10.59a8.578 8.578 0 0 0-.862-3.034 8.911 8.911 0 0 0-1.789-2.445c.337-1.342-.413-2.505-.413-2.505-1.292-.08-2.113.4-2.416.62-.052-.02-.102-.044-.154-.064-.22-.089-.446-.172-.677-.247-.231-.073-.47-.14-.711-.197a9.867 9.867 0 0 0-.875-.161C14.557.753 12.94 0 12.94 0c-1.804 1.145-2.147 2.744-2.147 2.744l-.018.093c-.098.029-.2.057-.298.088-.138.042-.275.094-.413.143-.138.055-.275.107-.41.166a8.869 8.869 0 0 0-1.557.87l-.063-.029c-2.497-.955-4.716.195-4.716.195-.203 2.658.996 4.33 1.235 4.636a11.608 11.608 0 0 0-.607 2.635C1.636 12.677.953 15.014.953 15.014c1.926 2.214 4.171 2.351 4.171 2.351.003-.002.006-.002.006-.005.285.509.615.994.986 1.446.156.19.32.371.488.548-.704 2.009.099 3.68.099 3.68 2.144.08 3.553-.937 3.849-1.173a9.784 9.784 0 0 0 3.164.501h.08l.055-.003.107-.002.103-.005.003.002c1.01 1.44 2.788 1.646 2.788 1.646 1.264-1.332 1.337-2.653 1.337-2.94v-.058c0-.02-.003-.039-.003-.06.265-.187.52-.387.758-.6a7.875 7.875 0 0 0 1.415-1.7c1.43.083 2.437-.885 2.437-.885-.236-1.49-1.085-2.216-1.264-2.354l-.018-.013-.016-.013a.217.217 0 0 1-.031-.02c.008-.092.016-.18.02-.27.011-.162.016-.323.016-.48v-.253l-.005-.098-.008-.135a1.891 1.891 0 0 0-.01-.13c-.003-.042-.008-.083-.013-.125l-.016-.124-.018-.122a6.215 6.215 0 0 0-2.032-3.73 6.015 6.015 0 0 0-3.222-1.46 6.292 6.292 0 0 0-.85-.048l-.107.002h-.063l-.044.003-.104.008a4.777 4.777 0 0 0-3.335 1.695c-.332.4-.592.84-.768 1.297a4.594 4.594 0 0 0-.312 1.817l.003.091c.005.055.007.11.013.164a3.615 3.615 0 0 0 .698 1.82 3.53 3.53 0 0 0 1.827 1.282c.33.098.66.14.971.137.039 0 .078 0 .114-.002l.063-.003c.02 0 .041-.003.062-.003.034-.002.065-.007.099-.01.007 0 .018-.003.028-.003l.031-.005.06-.008a1.18 1.18 0 0 0 .112-.02c.036-.008.072-.013.109-.024a2.634 2.634 0 0 0 .914-.415c.028-.02.056-.041.085-.065a.248.248 0 0 0 .039-.35.244.244 0 0 0-.309-.06l-.078.042c-.09.044-.184.083-.283.116a2.476 2.476 0 0 1-.475.096c-.028.003-.054.006-.083.006l-.083.002c-.026 0-.054 0-.08-.002l-.102-.006h-.012l-.024.006c-.016-.003-.031-.003-.044-.006-.031-.002-.06-.007-.091-.01a2.59 2.59 0 0 1-.724-.213 2.557 2.557 0 0 1-.667-.438 2.52 2.52 0 0 1-.805-1.475 2.306 2.306 0 0 1-.029-.444l.006-.122v-.023l.002-.031c.003-.021.003-.04.005-.06a3.163 3.163 0 0 1 1.352-2.29 3.12 3.12 0 0 1 .937-.43 2.946 2.946 0 0 1 .776-.101h.06l.07.002.045.003h.026l.07.005a4.041 4.041 0 0 1 1.635.49 3.94 3.94 0 0 1 1.602 1.662 3.77 3.77 0 0 1 .397 1.414l.005.076.003.075c.002.026.002.05.002.075 0 .024.003.052 0 .07v.065l-.002.073-.008.174a6.195 6.195 0 0 1-.08.639 5.1 5.1 0 0 1-.267.927 5.31 5.31 0 0 1-.624 1.13 5.052 5.052 0 0 1-3.237 2.014 4.82 4.82 0 0 1-.649.066l-.039.003h-.287a6.607 6.607 0 0 1-1.716-.265 6.776 6.776 0 0 1-3.4-2.274 6.75 6.75 0 0 1-.746-1.15 6.616 6.616 0 0 1-.714-2.596l-.005-.083-.002-.02v-.056l-.003-.073v-.096l-.003-.104v-.07l.003-.163c.008-.22.026-.45.054-.678a8.707 8.707 0 0 1 .28-1.355c.128-.444.286-.872.473-1.277a7.04 7.04 0 0 1 1.456-2.1 5.925 5.925 0 0 1 .953-.763c.169-.111.343-.213.524-.306.089-.05.182-.091.273-.135.047-.02.093-.042.138-.062a7.177 7.177 0 0 1 .714-.267l.145-.045c.049-.015.098-.026.148-.041.098-.029.197-.052.296-.076.049-.013.1-.02.15-.033l.15-.032.151-.028.076-.013.075-.01.153-.024c.057-.01.114-.013.171-.023l.169-.021c.036-.003.073-.008.106-.01l.073-.008.036-.003.042-.002c.057-.003.114-.008.171-.01l.086-.006h.023l.037-.003.145-.007a7.999 7.999 0 0 1 1.708.125 7.917 7.917 0 0 1 2.048.68 8.253 8.253 0 0 1 1.672 1.09l.09.077.089.078c.06.052.114.107.171.159.057.052.112.106.166.16.052.055.107.107.159.164a8.671 8.671 0 0 1 1.41 1.978c.012.026.028.052.04.078l.04.078.075.156c.023.051.05.1.07.153l.065.15a8.848 8.848 0 0 1 .45 1.34.19.19 0 0 0 .201.142.186.186 0 0 0 .172-.184c.01-.246.002-.532-.024-.856z" fill="#f46800"/></g>
  <text class="pt" x="65" y="291">Grafana</text>
  <rect x="142" y="270" width="123" height="32" rx="8" fill="#e6522c1f" stroke="#e6522c" stroke-width="1.3"/>
  <g transform="translate(156,278.0) scale(0.6667)"><path d="M12 0C5.373 0 0 5.372 0 12c0 6.627 5.373 12 12 12s12-5.373 12-12c0-6.628-5.373-12-12-12zm0 22.46c-1.885 0-3.414-1.26-3.414-2.814h6.828c0 1.553-1.528 2.813-3.414 2.813zm5.64-3.745H6.36v-2.046h11.28v2.046zm-.04-3.098H6.391c-.037-.043-.075-.086-.111-.13-1.155-1.401-1.427-2.133-1.69-2.879-.005-.025 1.4.287 2.395.511 0 0 .513.119 1.262.255-.72-.843-1.147-1.915-1.147-3.01 0-2.406 1.845-4.508 1.18-6.207.648.053 1.34 1.367 1.387 3.422.689-.951.977-2.69.977-3.755 0-1.103.727-2.385 1.454-2.429-.648 1.069.168 1.984.894 4.256.272.854.237 2.29.447 3.201.07-1.892.395-4.652 1.595-5.605-.529 1.2.079 2.702.494 3.424.671 1.164 1.078 2.047 1.078 3.716a4.642 4.642 0 01-1.11 2.996c.792-.149 1.34-.283 1.34-.283l2.573-.502s-.374 1.538-1.81 3.019z" fill="#e6522c"/></g>
  <text class="pt" x="179" y="291">Prometheus</text>
  <rect x="277" y="270" width="58" height="32" rx="8" fill="#f5a6231f" stroke="#f5a623" stroke-width="1.3"/>
  <text class="pt" x="291" y="291">Loki</text>
  <rect x="347" y="270" width="95" height="32" rx="8" fill="#87829c1f" stroke="#87829c" stroke-width="1.3"/>
  <g transform="translate(361,278.0) scale(0.6667)"><path d="M13.91 2.505c-.873-1.448-2.972-1.448-3.844 0L6.904 7.92a15.478 15.478 0 0 1 8.53 12.811h-2.221A13.301 13.301 0 0 0 5.784 9.814l-2.926 5.06a7.65 7.65 0 0 1 4.435 5.848H2.194a.365.365 0 0 1-.298-.534l1.413-2.402a5.16 5.16 0 0 0-1.614-.913L.296 19.275a2.182 2.182 0 0 0 .812 2.999 2.24 2.24 0 0 0 1.086.288h6.983a9.322 9.322 0 0 0-3.845-8.318l1.11-1.922a11.47 11.47 0 0 1 4.95 10.24h5.915a17.242 17.242 0 0 0-7.885-15.28l2.244-3.845a.37.37 0 0 1 .504-.13c.255.14 9.75 16.708 9.928 16.9a.365.365 0 0 1-.327.543h-2.287c.029.612.029 1.223 0 1.831h2.297a2.206 2.206 0 0 0 1.922-3.31z" fill="#87829c"/></g>
  <text class="pt" x="384" y="291">Sentry</text>
  <rect x="454" y="270" width="109" height="32" rx="8" fill="#8892a41f" stroke="#8892a4" stroke-width="1.3"/>
  <g transform="translate(468,278.0) scale(0.6667)"><path d="M12.002 0a5.988 5.988 0 1 1 0 11.975 5.988 5.988 0 0 1 0-11.975zm9.723 13.026h-.03l-4.527-2.242a.671.671 0 0 0-.876.268 22.408 22.408 0 0 1-4.306 5.217 22.407 22.407 0 0 1-4.286-5.2.671.671 0 0 0-.876-.269l-4.535 2.226h-.03a.671.671 0 0 0-.248.902 28.85 28.85 0 0 0 4.55 5.933l-.002.001c.024.025.05.048.075.072.335.335.676.664 1.027.981.081.074.165.144.247.217.315.278.632.555.96.82.144.117.295.227.441.341.277.216.552.434.837.639.44.318.888.625 1.346.917a.963.963 0 0 0 1.007.017c.487-.312.962-.64 1.428-.98.068-.05.132-.103.2-.153.358-.266.713-.537 1.06-.82.234-.19.46-.39.688-.588.17-.147.34-.291.506-.442.295-.268.58-.545.864-.825.061-.06.127-.118.188-.179l-.004-.002a28.852 28.852 0 0 0 4.565-5.949.671.671 0 0 0-.269-.902z" fill="#8892a4"/></g>
  <text class="pt" x="491" y="291">Opsgenie</text>
</g>
<g class="row r3">
  <text class="band" fill="#9ece6a" x="28" y="364">🛠️  Backend &amp; API Development</text>
  <rect x="28" y="378" width="76" height="32" rx="8" fill="#777bb41f" stroke="#777bb4" stroke-width="1.3"/>
  <g transform="translate(42,386.0) scale(0.6667)"><path d="M7.01 10.207h-.944l-.515 2.648h.838c.556 0 .97-.105 1.242-.314.272-.21.455-.559.55-1.049.092-.47.05-.802-.124-.995-.175-.193-.523-.29-1.047-.29zM12 5.688C5.373 5.688 0 8.514 0 12s5.373 6.313 12 6.313S24 15.486 24 12c0-3.486-5.373-6.312-12-6.312zm-3.26 7.451c-.261.25-.575.438-.917.551-.336.108-.765.164-1.285.164H5.357l-.327 1.681H3.652l1.23-6.326h2.65c.797 0 1.378.209 1.744.628.366.418.476 1.002.33 1.752a2.836 2.836 0 0 1-.305.847c-.143.255-.33.49-.561.703zm4.024.715l.543-2.799c.063-.318.039-.536-.068-.651-.107-.116-.336-.174-.687-.174H11.46l-.704 3.625H9.388l1.23-6.327h1.367l-.327 1.682h1.218c.767 0 1.295.134 1.586.401s.378.7.263 1.299l-.572 2.944h-1.389zm7.597-2.265a2.782 2.782 0 0 1-.305.847c-.143.255-.33.49-.561.703a2.44 2.44 0 0 1-.917.551c-.336.108-.765.164-1.286.164h-1.18l-.327 1.682h-1.378l1.23-6.326h2.649c.797 0 1.378.209 1.744.628.366.417.477 1.001.331 1.751zM17.766 10.207h-.943l-.516 2.648h.838c.557 0 .971-.105 1.242-.314.272-.21.455-.559.551-1.049.092-.47.049-.802-.125-.995s-.524-.29-1.047-.29z" fill="#777bb4"/></g>
  <text class="pt" x="65" y="399">PHP</text>
  <rect x="116" y="378" width="102" height="32" rx="8" fill="#ff32261f" stroke="#ff3226" stroke-width="1.3"/>
  <g transform="translate(130,386.0) scale(0.6667)"><path d="M23.642 5.43a.364.364 0 01.014.1v5.149c0 .135-.073.26-.189.326l-4.323 2.49v4.934a.378.378 0 01-.188.326L9.93 23.949a.316.316 0 01-.066.027c-.008.002-.016.008-.024.01a.348.348 0 01-.192 0c-.011-.002-.02-.008-.03-.012-.02-.008-.042-.014-.062-.025L.533 18.755a.376.376 0 01-.189-.326V2.974c0-.033.005-.066.014-.098.003-.012.01-.02.014-.032a.369.369 0 01.023-.058c.004-.013.015-.022.023-.033l.033-.045c.012-.01.025-.018.037-.027.014-.012.027-.024.041-.034H.53L5.043.05a.375.375 0 01.375 0L9.93 2.647h.002c.015.01.027.021.04.033l.038.027c.013.014.02.03.033.045.008.011.02.021.025.033.01.02.017.038.024.058.003.011.01.021.013.032.01.031.014.064.014.098v9.652l3.76-2.164V5.527c0-.033.004-.066.013-.098.003-.01.01-.02.013-.032a.487.487 0 01.024-.059c.007-.012.018-.02.025-.033.012-.015.021-.03.033-.043.012-.012.025-.02.037-.028.014-.01.026-.023.041-.032h.001l4.513-2.598a.375.375 0 01.375 0l4.513 2.598c.016.01.027.021.042.031.012.01.025.018.036.028.013.014.022.03.034.044.008.012.019.021.024.033.011.02.018.04.024.06.006.01.012.021.015.032zm-.74 5.032V6.179l-1.578.908-2.182 1.256v4.283zm-4.51 7.75v-4.287l-2.147 1.225-6.126 3.498v4.325zM1.093 3.624v14.588l8.273 4.761v-4.325l-4.322-2.445-.002-.003H5.04c-.014-.01-.025-.021-.04-.031-.011-.01-.024-.018-.035-.027l-.001-.002c-.013-.012-.021-.025-.031-.04-.01-.011-.021-.022-.028-.036h-.002c-.008-.014-.013-.031-.02-.047-.006-.016-.014-.027-.018-.043a.49.49 0 01-.008-.057c-.002-.014-.006-.027-.006-.041V5.789l-2.18-1.257zM5.23.81L1.47 2.974l3.76 2.164 3.758-2.164zm1.956 13.505l2.182-1.256V3.624l-1.58.91-2.182 1.255v9.435zm11.581-10.95l-3.76 2.163 3.76 2.163 3.759-2.164zm-.376 4.978L16.21 7.087 14.63 6.18v4.283l2.182 1.256 1.58.908zm-8.65 9.654l5.514-3.148 2.756-1.572-3.757-2.163-4.323 2.489-3.941 2.27z" fill="#ff3226"/></g>
  <text class="pt" x="153" y="399">Laravel</text>
  <rect x="230" y="378" width="66" height="32" rx="8" fill="#00add81f" stroke="#00add8" stroke-width="1.3"/>
  <g transform="translate(244,386.0) scale(0.6667)"><path d="M1.811 10.231c-.047 0-.058-.023-.035-.059l.246-.315c.023-.035.081-.058.128-.058h4.172c.046 0 .058.035.035.07l-.199.303c-.023.036-.082.07-.117.07zM.047 11.306c-.047 0-.059-.023-.035-.058l.245-.316c.023-.035.082-.058.129-.058h5.328c.047 0 .07.035.058.07l-.093.28c-.012.047-.058.07-.105.07zm2.828 1.075c-.047 0-.059-.035-.035-.07l.163-.292c.023-.035.07-.07.117-.07h2.337c.047 0 .07.035.07.082l-.023.28c0 .047-.047.082-.082.082zm12.129-2.36c-.736.187-1.239.327-1.963.514-.176.046-.187.058-.34-.117-.174-.199-.303-.327-.548-.444-.737-.362-1.45-.257-2.115.175-.795.514-1.204 1.274-1.192 2.22.011.935.654 1.706 1.577 1.835.795.105 1.46-.175 1.987-.77.105-.13.198-.27.315-.434H10.47c-.245 0-.304-.152-.222-.35.152-.362.432-.97.596-1.274a.315.315 0 01.292-.187h4.253c-.023.316-.023.631-.07.947a4.983 4.983 0 01-.958 2.29c-.841 1.11-1.94 1.8-3.33 1.986-1.145.152-2.209-.07-3.143-.77-.865-.655-1.356-1.52-1.484-2.595-.152-1.274.222-2.419.993-3.424.83-1.086 1.928-1.776 3.272-2.02 1.098-.2 2.15-.07 3.096.571.62.41 1.063.97 1.356 1.648.07.105.023.164-.117.2m3.868 6.461c-1.064-.024-2.034-.328-2.852-1.029a3.665 3.665 0 01-1.262-2.255c-.21-1.32.152-2.489.947-3.529.853-1.122 1.881-1.706 3.272-1.95 1.192-.21 2.314-.095 3.33.595.923.63 1.496 1.484 1.648 2.605.198 1.578-.257 2.863-1.344 3.962-.771.783-1.718 1.273-2.805 1.495-.315.06-.63.07-.934.106zm2.78-4.72c-.011-.153-.011-.27-.034-.387-.21-1.157-1.274-1.81-2.384-1.554-1.087.245-1.788.935-2.045 2.033-.21.912.234 1.835 1.075 2.21.643.28 1.285.244 1.905-.07.923-.48 1.425-1.228 1.484-2.233z" fill="#00add8"/></g>
  <text class="pt" x="267" y="399">Go</text>
  <rect x="308" y="378" width="81" height="32" rx="8" fill="#4eaa251f" stroke="#4eaa25" stroke-width="1.3"/>
  <g transform="translate(322,386.0) scale(0.6667)"><path d="M21.038,4.9l-7.577-4.498C13.009,0.134,12.505,0,12,0c-0.505,0-1.009,0.134-1.462,0.403L2.961,4.9 C2.057,5.437,1.5,6.429,1.5,7.503v8.995c0,1.073,0.557,2.066,1.462,2.603l7.577,4.497C10.991,23.866,11.495,24,12,24 c0.505,0,1.009-0.134,1.461-0.402l7.577-4.497c0.904-0.537,1.462-1.529,1.462-2.603V7.503C22.5,6.429,21.943,5.437,21.038,4.9z M15.17,18.946l0.013,0.646c0.001,0.078-0.05,0.167-0.111,0.198l-0.383,0.22c-0.061,0.031-0.111-0.007-0.112-0.085L14.57,19.29 c-0.328,0.136-0.66,0.169-0.872,0.084c-0.04-0.016-0.057-0.075-0.041-0.142l0.139-0.584c0.011-0.046,0.036-0.092,0.069-0.121 c0.012-0.011,0.024-0.02,0.036-0.026c0.022-0.011,0.043-0.014,0.062-0.006c0.229,0.077,0.521,0.041,0.802-0.101 c0.357-0.181,0.596-0.545,0.592-0.907c-0.003-0.328-0.181-0.465-0.613-0.468c-0.55,0.001-1.064-0.107-1.072-0.917 c-0.007-0.667,0.34-1.361,0.889-1.8l-0.007-0.652c-0.001-0.08,0.048-0.168,0.111-0.2l0.37-0.236 c0.061-0.031,0.111,0.007,0.112,0.087l0.006,0.653c0.273-0.109,0.511-0.138,0.726-0.088c0.047,0.012,0.067,0.076,0.048,0.151 l-0.144,0.578c-0.011,0.044-0.036,0.088-0.065,0.116c-0.012,0.012-0.025,0.021-0.038,0.028c-0.019,0.01-0.038,0.013-0.057,0.009 c-0.098-0.022-0.332-0.073-0.699,0.113c-0.385,0.195-0.52,0.53-0.517,0.778c0.003,0.297,0.155,0.387,0.681,0.396 c0.7,0.012,1.003,0.318,1.01,1.023C16.105,17.747,15.736,18.491,15.17,18.946z M19.143,17.859c0,0.06-0.008,0.116-0.058,0.145 l-1.916,1.164c-0.05,0.029-0.09,0.004-0.09-0.056v-0.494c0-0.06,0.037-0.093,0.087-0.122l1.887-1.129 c0.05-0.029,0.09-0.004,0.09,0.056V17.859z M20.459,6.797l-7.168,4.427c-0.894,0.523-1.553,1.109-1.553,2.187v8.833 c0,0.645,0.26,1.063,0.66,1.184c-0.131,0.023-0.264,0.039-0.398,0.039c-0.42,0-0.833-0.114-1.197-0.33L3.226,18.64 c-0.741-0.44-1.201-1.261-1.201-2.142V7.503c0-0.881,0.46-1.702,1.201-2.142l7.577-4.498c0.363-0.216,0.777-0.33,1.197-0.33 c0.419,0,0.833,0.114,1.197,0.33l7.577,4.498c0.624,0.371,1.046,1.013,1.164,1.732C21.686,6.557,21.12,6.411,20.459,6.797z" fill="#4eaa25"/></g>
  <text class="pt" x="345" y="399">Bash</text>
</g>
<g class="row r4">
  <text class="band" fill="#e0af68" x="28" y="472">🗄️  Data &amp; Databases</text>
  <rect x="28" y="486" width="92" height="32" rx="8" fill="#4479a11f" stroke="#4479a1" stroke-width="1.3"/>
  <g transform="translate(42,494.0) scale(0.6667)"><path d="M16.405 5.501c-.115 0-.193.014-.274.033v.013h.014c.054.104.146.18.214.273.054.107.1.214.154.32l.014-.015c.094-.066.14-.172.14-.333-.04-.047-.046-.094-.08-.14-.04-.067-.126-.1-.18-.153zM5.77 18.695h-.927a50.854 50.854 0 00-.27-4.41h-.008l-1.41 4.41H2.45l-1.4-4.41h-.01a72.892 72.892 0 00-.195 4.41H0c.055-1.966.192-3.81.41-5.53h1.15l1.335 4.064h.008l1.347-4.064h1.095c.242 2.015.384 3.86.428 5.53zm4.017-4.08c-.378 2.045-.876 3.533-1.492 4.46-.482.716-1.01 1.073-1.583 1.073-.153 0-.34-.046-.566-.138v-.494c.11.017.24.026.386.026.268 0 .483-.075.647-.222.197-.18.295-.382.295-.605 0-.155-.077-.47-.23-.944L6.23 14.615h.91l.727 2.36c.164.536.233.91.205 1.123.4-1.064.678-2.227.835-3.483zm12.325 4.08h-2.63v-5.53h.885v4.85h1.745zm-3.32.135l-1.016-.5c.09-.076.177-.158.255-.25.433-.506.648-1.258.648-2.253 0-1.83-.718-2.746-2.155-2.746-.704 0-1.254.232-1.65.697-.43.508-.646 1.256-.646 2.245 0 .972.19 1.686.574 2.14.35.41.877.615 1.583.615.264 0 .506-.033.725-.098l1.325.772.36-.622zM15.5 17.588c-.225-.36-.337-.94-.337-1.736 0-1.393.424-2.09 1.27-2.09.443 0 .77.167.977.5.224.362.336.936.336 1.723 0 1.404-.424 2.108-1.27 2.108-.445 0-.77-.167-.978-.5zm-1.658-.425c0 .47-.172.856-.516 1.156-.344.3-.803.45-1.384.45-.543 0-1.064-.172-1.573-.515l.237-.476c.438.22.833.328 1.19.328.332 0 .593-.073.783-.22a.754.754 0 00.3-.615c0-.33-.23-.61-.648-.845-.388-.213-1.163-.657-1.163-.657-.422-.307-.632-.636-.632-1.177 0-.45.157-.81.47-1.085.315-.278.72-.415 1.22-.415.512 0 .98.136 1.4.41l-.213.476a2.726 2.726 0 00-1.064-.23c-.283 0-.502.068-.654.206a.685.685 0 00-.248.524c0 .328.234.61.666.85.393.215 1.187.67 1.187.67.433.305.648.63.648 1.168zm9.382-5.852c-.535-.014-.95.04-1.297.188-.1.04-.26.04-.274.167.055.053.063.14.11.214.08.134.218.313.346.407.14.11.28.216.427.31.26.16.555.255.81.416.145.094.293.213.44.313.073.05.12.14.214.172v-.02c-.046-.06-.06-.147-.105-.214-.067-.067-.134-.127-.2-.193a3.223 3.223 0 00-.695-.675c-.214-.146-.682-.35-.77-.595l-.013-.014c.146-.013.32-.066.46-.106.227-.06.435-.047.67-.106.106-.027.213-.06.32-.094v-.06c-.12-.12-.21-.283-.334-.395a8.867 8.867 0 00-1.104-.823c-.21-.134-.476-.22-.697-.334-.08-.04-.214-.06-.26-.127-.12-.146-.19-.34-.275-.514a17.69 17.69 0 01-.547-1.163c-.12-.262-.193-.523-.34-.763-.69-1.137-1.437-1.826-2.586-2.5-.247-.14-.543-.2-.856-.274-.167-.008-.334-.02-.5-.027-.11-.047-.216-.174-.31-.235-.38-.24-1.364-.76-1.644-.072-.18.434.267.862.422 1.082.115.153.26.328.34.5.047.116.06.235.107.356.106.294.207.622.347.897.073.14.153.287.247.413.054.073.146.107.167.227-.094.136-.1.334-.154.5-.24.757-.146 1.693.194 2.25.107.166.362.534.703.393.3-.12.234-.5.32-.835.02-.08.007-.133.048-.187v.015c.094.188.188.367.274.555.206.328.566.668.867.895.16.12.287.328.487.402v-.02h-.015c-.043-.058-.1-.086-.154-.133a3.445 3.445 0 01-.35-.4 8.76 8.76 0 01-.747-1.218c-.11-.21-.202-.436-.29-.643-.04-.08-.04-.2-.107-.24-.1.146-.247.273-.32.453-.127.288-.14.642-.188 1.01-.027.007-.014 0-.027.014-.214-.052-.287-.274-.367-.46-.2-.475-.233-1.238-.06-1.785.047-.14.247-.582.167-.716-.042-.127-.174-.2-.247-.303a2.478 2.478 0 01-.24-.427c-.16-.374-.24-.788-.414-1.162-.08-.173-.22-.354-.334-.513-.127-.18-.267-.307-.368-.52-.033-.073-.08-.194-.027-.274.014-.054.042-.075.094-.09.088-.072.335.022.422.062.247.1.455.194.662.334.094.066.195.193.315.226h.14c.214.047.455.014.655.073.355.114.675.28.962.46a5.953 5.953 0 012.085 2.286c.08.154.115.295.188.455.14.33.313.663.455.982.14.315.275.636.476.897.1.14.502.213.682.286.133.06.34.115.46.188.23.14.454.3.67.454.11.076.443.243.463.378z" fill="#4479a1"/></g>
  <text class="pt" x="65" y="507">MySQL</text>
  <rect x="132" y="486" width="111" height="32" rx="8" fill="#669df61f" stroke="#669df6" stroke-width="1.3"/>
  <g transform="translate(146,494.0) scale(0.6667)"><path d="M5.676 10.595h2.052v5.244a5.892 5.892 0 0 1-2.052-2.088v-3.156zm18.179 10.836a.504.504 0 0 1 0 .708l-1.716 1.716a.504.504 0 0 1-.708 0l-4.248-4.248a.206.206 0 0 1-.007-.007c-.02-.02-.028-.045-.043-.066a10.736 10.736 0 0 1-6.334 2.065C4.835 21.599 0 16.764 0 10.799S4.835 0 10.8 0s10.799 4.835 10.799 10.8c0 2.369-.772 4.553-2.066 6.333.025.017.052.028.074.05l4.248 4.248zm-5.028-10.632a8.015 8.015 0 1 0-8.028 8.028h.024a8.016 8.016 0 0 0 8.004-8.028zm-4.86 4.98a6.002 6.002 0 0 0 2.04-2.184v-1.764h-2.04v3.948zm-4.5.948c.442.057.887.08 1.332.072.4.025.8.025 1.2 0V7.692H9.468v9.035z" fill="#669df6"/></g>
  <text class="pt" x="169" y="507">BigQuery</text>
  <rect x="255" y="486" width="88" height="32" rx="8" fill="#ff44381f" stroke="#ff4438" stroke-width="1.3"/>
  <g transform="translate(269,494.0) scale(0.6667)"><path d="M22.71 13.145c-1.66 2.092-3.452 4.483-7.038 4.483-3.203 0-4.397-2.825-4.48-5.12.701 1.484 2.073 2.685 4.214 2.63 4.117-.133 6.94-3.852 6.94-7.239 0-4.05-3.022-6.972-8.268-6.972-3.752 0-8.4 1.428-11.455 3.685C2.59 6.937 3.885 9.958 4.35 9.626c2.648-1.904 4.748-3.13 6.784-3.744C8.12 9.244.886 17.05 0 18.425c.1 1.261 1.66 4.648 2.424 4.648.232 0 .431-.133.664-.365a100.49 100.49 0 0 0 5.54-6.765c.222 3.104 1.748 6.898 6.014 6.898 3.819 0 7.604-2.756 9.33-8.965.2-.764-.73-1.361-1.261-.73zm-4.349-5.013c0 1.959-1.926 2.922-3.685 2.922-.941 0-1.664-.247-2.235-.568 1.051-1.592 2.092-3.225 3.21-4.973 1.972.334 2.71 1.43 2.71 2.619z" fill="#ff4438"/></g>
  <text class="pt" x="292" y="507">Redis</text>
</g>
<g class="row r5">
  <text class="band" fill="#bb9af7" x="28" y="580">🤖  AI &amp; Context Engineering</text>
  <rect x="28" y="594" width="95" height="32" rx="8" fill="#d977571f" stroke="#d97757" stroke-width="1.3"/>
  <g transform="translate(42,602.0) scale(0.6667)"><path d="m4.7144 15.9555 4.7174-2.6471.079-.2307-.079-.1275h-.2307l-.7893-.0486-2.6956-.0729-2.3375-.0971-2.2646-.1214-.5707-.1215-.5343-.7042.0546-.3522.4797-.3218.686.0608 1.5179.1032 2.2767.1578 1.6514.0972 2.4468.255h.3886l.0546-.1579-.1336-.0971-.1032-.0972L6.973 9.8356l-2.55-1.6879-1.3356-.9714-.7225-.4918-.3643-.4614-.1578-1.0078.6557-.7225.8803.0607.2246.0607.8925.686 1.9064 1.4754 2.4893 1.8336.3643.3035.1457-.1032.0182-.0728-.164-.2733-1.3539-2.4467-1.445-2.4893-.6435-1.032-.17-.6194c-.0607-.255-.1032-.4674-.1032-.7285L6.287.1335 6.6997 0l.9957.1336.419.3642.6192 1.4147 1.0018 2.2282 1.5543 3.0296.4553.8985.2429.8318.091.255h.1579v-.1457l.1275-1.706.2368-2.0947.2307-2.6957.0789-.7589.3764-.9107.7468-.4918.5828.2793.4797.686-.0668.4433-.2853 1.8517-.5586 2.9021-.3643 1.9429h.2125l.2429-.2429.9835-1.3053 1.6514-2.0643.7286-.8196.85-.9046.5464-.4311h1.0321l.759 1.1293-.34 1.1657-1.0625 1.3478-.8804 1.1414-1.2628 1.7-.7893 1.36.0729.1093.1882-.0183 2.8535-.607 1.5421-.2794 1.8396-.3157.8318.3886.091.3946-.3278.8075-1.967.4857-2.3072.4614-3.4364.8136-.0425.0304.0486.0607 1.5482.1457.6618.0364h1.621l3.0175.2247.7892.522.4736.6376-.079.4857-1.2142.6193-1.6393-.3886-3.825-.9107-1.3113-.3279h-.1822v.1093l1.0929 1.0686 2.0035 1.8092 2.5075 2.3314.1275.5768-.3218.4554-.34-.0486-2.2039-1.6575-.85-.7468-1.9246-1.621h-.1275v.17l.4432.6496 2.3436 3.5214.1214 1.0807-.17.3521-.6071.2125-.6679-.1214-1.3721-1.9246L14.38 17.959l-1.1414-1.9428-.1397.079-.674 7.2552-.3156.3703-.7286.2793-.6071-.4614-.3218-.7468.3218-1.4753.3886-1.9246.3157-1.53.2853-1.9004.17-.6314-.0121-.0425-.1397.0182-1.4328 1.9672-2.1796 2.9446-1.7243 1.8456-.4128.164-.7164-.3704.0667-.6618.4008-.5889 2.386-3.0357 1.4389-1.882.929-1.0868-.0062-.1579h-.0546l-6.3385 4.1164-1.1293.1457-.4857-.4554.0608-.7467.2307-.2429 1.9064-1.3114Z" fill="#d97757"/></g>
  <text class="pt" x="65" y="615">Claude</text>
  <rect x="135" y="594" width="95" height="32" rx="8" fill="#8e75b21f" stroke="#8e75b2" stroke-width="1.3"/>
  <g transform="translate(149,602.0) scale(0.6667)"><path d="M11.04 19.32Q12 21.51 12 24q0-2.49.93-4.68.96-2.19 2.58-3.81t3.81-2.55Q21.51 12 24 12q-2.49 0-4.68-.93a12.3 12.3 0 0 1-3.81-2.58 12.3 12.3 0 0 1-2.58-3.81Q12 2.49 12 0q0 2.49-.96 4.68-.93 2.19-2.55 3.81a12.3 12.3 0 0 1-3.81 2.58Q2.49 12 0 12q2.49 0 4.68.96 2.19.93 3.81 2.55t2.55 3.81" fill="#8e75b2"/></g>
  <text class="pt" x="172" y="615">Gemini</text>
  <rect x="242" y="594" width="126" height="32" rx="8" fill="#c6c6c61f" stroke="#c6c6c6" stroke-width="1.3"/>
  <g transform="translate(256,602.0) scale(0.6667)"><path d="M11.999 3.201C5.372 3.201 0 8.528 0 15.101V20.8h2.212v-.568c0-2.666 2.178-4.827 4.866-4.827 2.688 0 4.866 2.16 4.866 4.827v.568h2.212v-.568c0-3.877-3.17-7.019-7.078-7.019A7.075 7.075 0 0 0 2.992 14.5a7.355 7.355 0 0 1 6.568-4.016c4.057 0 7.347 3.264 7.347 7.287V20.8h2.212V17.77c0-5.235-4.28-9.481-9.56-9.481a9.563 9.563 0 0 0-6.217 2.28A9.795 9.795 0 0 1 12 5.393c5.406 0 9.788 4.346 9.788 9.707V20.8H24V15.1c-.001-6.573-5.373-11.9-12.001-11.9Z" fill="#c6c6c6"/></g>
  <text class="pt" x="279" y="615">NotebookLM</text>
  <rect x="380" y="594" width="76" height="32" rx="8" fill="#c6c6c61f" stroke="#c6c6c6" stroke-width="1.3"/>
  <g transform="translate(394,602.0) scale(0.6667)"><path d="M13.85 0a4.16 4.16 0 0 0-2.95 1.217L1.456 10.66a.835.835 0 0 0 0 1.18.835.835 0 0 0 1.18 0l9.442-9.442a2.49 2.49 0 0 1 3.541 0 2.49 2.49 0 0 1 0 3.541L8.59 12.97l-.1.1a.835.835 0 0 0 0 1.18.835.835 0 0 0 1.18 0l.1-.098 7.03-7.034a2.49 2.49 0 0 1 3.542 0l.049.05a2.49 2.49 0 0 1 0 3.54l-8.54 8.54a1.96 1.96 0 0 0 0 2.755l1.753 1.753a.835.835 0 0 0 1.18 0 .835.835 0 0 0 0-1.18l-1.753-1.753a.266.266 0 0 1 0-.394l8.54-8.54a4.185 4.185 0 0 0 0-5.9l-.05-.05a4.16 4.16 0 0 0-2.95-1.218c-.2 0-.401.02-.6.048a4.17 4.17 0 0 0-1.17-3.552A4.16 4.16 0 0 0 13.85 0m0 3.333a.84.84 0 0 0-.59.245L6.275 10.56a4.186 4.186 0 0 0 0 5.902 4.186 4.186 0 0 0 5.902 0L19.16 9.48a.835.835 0 0 0 0-1.18.835.835 0 0 0-1.18 0l-6.985 6.984a2.49 2.49 0 0 1-3.54 0 2.49 2.49 0 0 1 0-3.54l6.983-6.985a.835.835 0 0 0 0-1.18.84.84 0 0 0-.59-.245" fill="#c6c6c6"/></g>
  <text class="pt" x="417" y="615">MCP</text>
  <rect x="468" y="594" width="76" height="32" rx="8" fill="#018ef51f" stroke="#018ef5" stroke-width="1.3"/>
  <g transform="translate(482,602.0) scale(0.6667)"><path d="M22.0113 3.269h-5.8219a4.2894 4.2894 0 0 0-4.1854 3.3452A4.2894 4.2894 0 0 0 7.8186 3.269h-5.818A2.0007 2.0007 0 0 0 0 5.2697v10.2434a2.0007 2.0007 0 0 0 2.0007 2.0007h3.7372c4.2574 0 5.5299 1.0244 6.138 3.133a.112.112 0 0 0 .1121.084h.024a.112.112 0 0 0 .112-.084c.6122-2.1086 1.8847-3.133 6.138-3.133h3.7373A2.0007 2.0007 0 0 0 24 15.5131V5.2697a2.0007 2.0007 0 0 0-1.9887-2.0006Zm-11.928 11.0557a.144.144 0 0 1-.144.144H3.2571a.144.144 0 0 1-.144-.144v-.9523a.144.144 0 0 1 .144-.144h6.6822a.144.144 0 0 1 .144.144zm0-2.5368a.144.144 0 0 1-.144.144H3.2571a.144.144 0 0 1-.144-.144v-.9523a.144.144 0 0 1 .144-.144h6.6822a.144.144 0 0 1 .144.144zm0-2.5368a.144.144 0 0 1-.144.144H3.2571a.144.144 0 0 1-.144-.144v-.9524a.144.144 0 0 1 .144-.144h6.6822a.144.144 0 0 1 .144.144zm10.8037 5.0696a.144.144 0 0 1-.144.144h-6.6823a.144.144 0 0 1-.144-.144v-.9523a.144.144 0 0 1 .144-.144h6.6822a.144.144 0 0 1 .144.144zm0-2.5368a.144.144 0 0 1-.144.144h-6.6823a.144.144 0 0 1-.144-.144v-.9523a.144.144 0 0 1 .144-.144h6.6822a.144.144 0 0 1 .144.144zm0-2.5368a.144.144 0 0 1-.144.144h-6.6823a.144.144 0 0 1-.144-.144v-.9484a.144.144 0 0 1 .144-.144h6.6822a.144.144 0 0 1 .144.144v.9524z" fill="#018ef5"/></g>
  <text class="pt" x="505" y="615">SDD</text>
</g>
<g class="row r6">
  <text class="band" fill="#e07b53" x="28" y="688">🔐  Security &amp; Compliance</text>
  <rect x="28" y="702" width="93" height="32" rx="8" fill="#e07b531f" stroke="#e07b53" stroke-width="1.3"/>
  <text class="pt" x="42" y="723">ISO 27001</text>
  <rect x="133" y="702" width="88" height="32" rx="8" fill="#9389ee1f" stroke="#9389ee" stroke-width="1.3"/>
  <g transform="translate(147,710.0) scale(0.6667)"><path d="M4.375 7.311 1.962 5.918a.1.1 0 0 1 0-.174L11.828.047a.343.343 0 0 1 .344 0l9.864 5.696a.1.1 0 0 1 0 .175L19.624 7.31a.962.962 0 0 1-.052-.074c-.914-1.478-2.124-2.592-3.596-3.31-4.088-1.994-9.164-.505-11.6 3.385ZM12.262 23.899v-3.14c5.693-2.087 9.01-7.766 7.588-12.985l2.436-1.42a.1.1 0 0 1 .151.088v11.645a.1.1 0 0 1-.05.087l-9.973 5.812a.1.1 0 0 1-.152-.087Zm-.559-3.141v3.14a.1.1 0 0 1-.151.086l-9.933-5.81a.114.114 0 0 1-.056-.099V6.436a.1.1 0 0 1 .15-.087l2.44 1.41c-1.455 5.307 1.846 10.993 7.55 13ZM7.013 8.834 4.807 7.561c2.306-3.665 7.094-5.066 10.95-3.186 1.385.676 2.526 1.727 3.39 3.124l.04.062-2.195 1.268a5.57 5.57 0 0 0-2.429-2.307c-2.603-1.27-5.901-.253-7.552 2.311Zm9.337 5.2c.813-1.371 1.088-2.99.798-4.685l2.255-1.314c1.245 4.86-1.864 10.169-7.14 12.192v-3.072c1.86-.67 3.272-1.747 4.087-3.12ZM4.6 8.018l2.27 1.31c-.225 1.571.112 3.204.951 4.606.919 1.536 2.225 2.629 3.881 3.25v3.045C6.327 18.25 3.297 13.042 4.601 8.017Zm5.303 2.486-2.459-1.42c1.52-2.34 4.53-3.268 6.9-2.112a5.075 5.075 0 0 1 2.216 2.108l-2.471 1.427a2.311 2.311 0 0 0-2.03-1.195c-.825 0-1.645.43-2.156 1.192Zm4.338.522 2.443-1.408c.22 1.51-.043 2.945-.765 4.162-.735 1.238-1.998 2.224-3.658 2.856v-2.631c1.25-.691 1.968-1.771 1.98-2.979ZM8.25 13.676A6.576 6.576 0 0 1 7.34 9.6l2.446 1.412c-.016 1.271.73 2.437 1.917 2.997v2.624a6.977 6.977 0 0 1-3.453-2.956Zm3.853-.148-.137.073-.157-.075c-1.023-.504-1.524-1.606-1.557-2.417a1.99 1.99 0 0 1 .004-.23 2.153 2.153 0 0 1 1.163-.957c.508-.178 1.034-.153 1.444.071.6.327.84.797.86.86.008.156.004.253.004.256-.038.981-.63 1.863-1.624 2.419Z" fill="#9389ee"/></g>
  <text class="pt" x="170" y="723">Trivy</text>
</g>
</svg>